<svg width="18" height="18" viewBox="0 0 18 18" fill="none" xmlns="http://www.w3.org/2000/svg">
  <path class="ltm-fl" d="M14.997 6.06151C15.0008 5.69297 14.9606 5.32529 14.877 4.96633C14.7185 4.31122 14.346 3.81114 13.787 3.44457C13.5019 3.26146 13.1826 3.13796 12.8485 3.08151C12.5901 3.037 12.3287 3.01193 12.0665 3.0065C12.0465 3.005 12.025 3.0015 12.0045 3H5.993C5.917 3.005 5.8415 3.0085 5.7655 3.013C5.392 3.03451 5.0205 3.07451 4.669 3.21304C4.001 3.47808 3.519 3.93916 3.2365 4.60327C3.1405 4.8273 3.0905 5.06584 3.055 5.30738C3.027 5.50342 3.011 5.69995 3.005 5.89748C3.005 5.91349 3.0015 5.92849 3 5.94399V12.0565C3.005 12.1265 3.0085 12.198 3.0135 12.2685C3.0385 12.6761 3.0905 13.0807 3.262 13.4552C3.587 14.1654 4.131 14.6319 4.879 14.856C5.089 14.9195 5.307 14.9495 5.5255 14.97C5.803 14.9965 6.0805 15 6.359 15H11.874C12.1364 14.9998 12.3986 14.9831 12.659 14.95C13.07 14.897 13.457 14.775 13.8065 14.5449C14.221 14.2769 14.5478 13.8932 14.7465 13.4412C14.8395 13.2312 14.893 13.0062 14.9315 12.7791C14.988 12.4416 15.0005 12.1 15 11.759C14.999 9.85864 15 7.96083 14.9985 6.06151H14.997ZM11.7855 8.05684V10.9133C11.7855 11.1219 11.7565 11.3269 11.6635 11.5164C11.5185 11.8115 11.2835 11.9975 10.9695 12.0865C10.7945 12.1365 10.6165 12.165 10.4345 12.173C9.95949 12.1955 9.54799 11.873 9.46299 11.4049C9.4273 11.2028 9.4587 10.9946 9.55241 10.812C9.64612 10.6294 9.79699 10.4825 9.98199 10.3937C10.1435 10.3137 10.317 10.2687 10.491 10.2317C10.68 10.1907 10.87 10.1552 11.058 10.1117C11.195 10.0802 11.2865 9.99667 11.313 9.85364C11.3198 9.82192 11.3231 9.78956 11.323 9.75713C11.323 8.84948 11.323 7.94182 11.322 7.03517C11.3217 7.0039 11.3173 6.97281 11.309 6.94266C11.289 6.86765 11.234 6.82114 11.157 6.82564C11.077 6.83064 10.998 6.84314 10.9195 6.85864C10.5395 6.93366 10.1595 7.01017 9.77949 7.08668L8.61699 7.32172L7.92999 7.46074C7.92199 7.46224 7.91399 7.46574 7.90599 7.46725C7.76749 7.50575 7.71749 7.56876 7.71099 7.71229C7.70999 7.73329 7.71099 7.75529 7.71099 7.7773C7.70999 9.07851 7.71099 10.3797 7.70949 11.6804C7.70949 11.8905 7.68599 12.0985 7.60199 12.294C7.463 12.6141 7.21699 12.8141 6.885 12.9107C6.71 12.9607 6.53 12.9907 6.3475 12.9967C5.8675 13.0147 5.47 12.6966 5.3875 12.2245C5.3175 11.8185 5.5025 11.3819 5.9645 11.1869C6.143 11.1119 6.3295 11.0708 6.5185 11.0318C6.662 11.0018 6.806 10.9738 6.9485 10.9433C7.14 10.9018 7.24 10.7818 7.24849 10.5863V10.5113C7.24849 9.03101 7.24849 7.54976 7.24949 6.06951C7.24949 6.008 7.256 5.94449 7.27049 5.88448C7.3055 5.74196 7.40699 5.66044 7.54349 5.62544C7.67099 5.59243 7.80099 5.56943 7.93049 5.54292C8.29699 5.46791 8.66349 5.3949 9.03049 5.32089L10.1655 5.09085C10.5005 5.02384 10.8355 4.95583 11.1705 4.88932C11.2805 4.86781 11.3915 4.84531 11.502 4.83631C11.657 4.8238 11.7635 4.92132 11.779 5.07735C11.783 5.11385 11.785 5.15136 11.785 5.18887C11.786 6.14402 11.786 7.10018 11.785 8.05534L11.7855 8.05684Z" />
</svg>