<svg width="202" height="46" viewBox="0 0 202 46" fill="none" xmlns="http://www.w3.org/2000/svg">
  <path class="ltm-fl" d="M15 33H12V30H15V33Z" />
  <path class="ltm-fl" d="M33 30H30V27H33V30Z" />
  <path class="ltm-fl" d="M33 16H27V19H18V16H24V13H33V16Z" />
  <path class="ltm-fl" d="M160.677 30.7871H155.464V20.3623H160.677V30.7871Z" />
  <path class="ltm-fl" fill-rule="evenodd" clip-rule="evenodd" d="M192 5H197V10H202V36H197V41H192V46H10V41H5V36H0V10H5V5H10V0H192V5ZM92.9131 41.2129H98.126V36H103.338V30.7871H98.126V20.3623H103.338V15.1494H92.9131V41.2129ZM24 13H12V16H15V28H10V36H18V22H27V19H33V25H28V33H36V10H24V13ZM46 9.9375V15.1494H51.2129V36H56.4248V15.1494H61.6377V9.9375H46ZM66.8506 36H72.0625V20.3623H77.2754V15.1494H66.8506V36ZM82.4883 36H87.7002V15.1494H82.4883V36ZM113.764 15.1494H118.976V36H124.188V15.1494H129.401V9.9375H113.764V15.1494ZM134.613 36H139.826V20.3623H145.039V15.1494H134.613V36ZM155.464 20.3623H150.251V30.7871H155.464V36H165.889V15.1494H155.464V20.3623ZM171.102 36H176.314V30.7871H171.102V36ZM181.526 36H186.739V30.7871H181.526V36ZM103.338 30.7871H108.551V20.3623H103.338V30.7871ZM176.314 30.7871H181.526V20.3623H176.314V30.7871ZM171.102 20.3623H176.314V15.1494H171.102V20.3623ZM181.526 20.3623H186.739V15.1494H181.526V20.3623ZM82.4883 9.9375H87.7002V4.72461H82.4883V9.9375Z" />
</svg>