<svg width="18" height="18" viewBox="0 0 18 18" fill="none" xmlns="http://www.w3.org/2000/svg">
  <path class="ltm-fl" d="M9 3C5.7 3 3 5.7 3 9C3 12.3 5.7 15 9 15C12.3 15 15 12.3 15 9C15 5.7 12.33 3 9 3ZM11.7605 11.67C11.6405 11.8495 11.4305 11.91 11.25 11.79C9.84 10.92 8.07 10.7395 5.9695 11.2195C5.7605 11.2805 5.58 11.13 5.52 10.95C5.46 10.7395 5.61 10.56 5.79 10.5C8.07 9.9895 10.05 10.2 11.61 11.16C11.82 11.25 11.8495 11.4895 11.7605 11.67ZM12.4805 10.02C12.33 10.23 12.06 10.32 11.8495 10.17C10.23 9.18 7.77 8.88 5.88 9.48C5.6405 9.54 5.37 9.42 5.31 9.18C5.25 8.94 5.37 8.6695 5.61 8.6095C7.8 7.95 10.5 8.2805 12.36 9.42C12.5405 9.5105 12.63 9.81 12.4805 10.02ZM12.5405 8.34C10.62 7.2 7.41 7.08 5.58 7.6505C5.28 7.74 4.98 7.56 4.89 7.29C4.8 6.9895 4.98 6.69 5.25 6.5995C7.38 5.9695 10.89 6.0895 13.1105 7.41C13.38 7.56 13.47 7.92 13.32 8.19C13.1705 8.4005 12.81 8.4895 12.5405 8.34Z" />
</svg>