<svg width="18" height="18" viewBox="0 0 18 18" fill="none" xmlns="http://www.w3.org/2000/svg">
  <path class="ltm-fl" d="M14.749 6.40562C14.6812 6.1338 14.5475 5.8857 14.3613 5.68618C14.1751 5.48667 13.9429 5.34272 13.688 5.26878C12.7525 5 9 5 9 5C9 5 5.2475 5 4.3115 5.26878C4.0567 5.34285 3.82465 5.48685 3.63854 5.68635C3.45243 5.88586 3.3188 6.13388 3.251 6.40562C3 7.40834 3 9.5 3 9.5C3 9.5 3 11.5917 3.251 12.5944C3.31879 12.8662 3.45249 13.1143 3.6387 13.3138C3.8249 13.5133 4.05709 13.6573 4.312 13.7312C5.2475 14 9 14 9 14C9 14 12.7525 14 13.6885 13.7312C13.9434 13.6573 14.1756 13.5134 14.3619 13.3139C14.5481 13.1143 14.6818 12.8662 14.7495 12.5944C15 11.5917 15 9.5 15 9.5C15 9.5 15 7.40834 14.749 6.40562ZM7.7725 11.399V7.60101L10.909 9.5L7.7725 11.399Z" />
</svg>